<?xml version="1.0" standalone="no"?><!DOCTYPE svg PUBLIC "-//W3C//DTD SVG 1.1//EN" "http://www.w3.org/Graphics/SVG/1.1/DTD/svg11.dtd"><svg t="1715241960242" class="icon" viewBox="0 0 1066 1024" version="1.1" xmlns="http://www.w3.org/2000/svg" p-id="1659" xmlns:xlink="http://www.w3.org/1999/xlink" width="208.203125" height="200"><path d="M425.147772 750.782463H195.356349c-57.126747 0-103.611038-46.484291-103.611038-103.611038V195.356349C91.745311 138.229602 138.229602 91.745311 195.356349 91.745311h451.815076c57.126747 0 103.611038 46.484291 103.611038 103.611038v451.815076c0 57.126747-46.484291 103.611038-103.611038 103.611038h-1.89607c-25.321706 0-45.872656 20.55095-45.872655 45.872656s20.55095 45.872656 45.872655 45.872655h1.89607c107.708995 0 195.356349-87.647354 195.356349-195.356349V195.356349C842.527774 87.647354 754.88042 0 647.171425 0H195.356349C87.647354 0 0 87.647354 0 195.356349v451.815076c0 107.708995 87.647354 195.356349 195.356349 195.356349h229.791423c25.321706 0 45.872656-20.55095 45.872656-45.872655s-20.55095-45.872656-45.872656-45.872656z" p-id="1660" fill="#bfbfbf"></path><path d="M923.936447 447.411301h-4.893083c-25.321706 0-45.872656 20.55095-45.872656 45.872656s20.55095 45.872656 45.872656 45.872655h4.893083c27.951738 0 50.643412 22.691674 50.643412 50.643412v291.811253c0 27.951738-22.752837 50.643412-50.643412 50.643412h-291.811253c-27.951738 0-50.643412-22.752837-50.643412-50.643412V589.800024c0-24.587743 32.355513-50.643412 62.87612-50.643412h20.55095c25.321706 0 45.872656-20.55095 45.872656-45.872655s-20.55095-45.872656-45.872656-45.872656h-20.55095c-73.151595 0-154.621431 58.472345-154.621431 142.388723v291.811253c0 78.533986 63.854737 142.388723 142.388723 142.388723h291.811253c78.533986 0 142.388723-63.854737 142.388723-142.388723V589.800024c0-78.533986-63.854737-142.388723-142.388723-142.388723zM559.707562 248.446303c0-25.321706-20.55095-45.872656-45.872656-45.872656H213.399594c-25.321706 0-45.872656 20.55095-45.872656 45.872656s20.55095 45.872656 45.872656 45.872655h300.435312c25.321706 0 45.872656-20.55095 45.872656-45.872655zM213.399594 367.715207c-25.321706 0-45.872656 20.55095-45.872656 45.872656s20.55095 45.872656 45.872656 45.872655h171.991877c25.321706 0 45.872656-20.55095 45.872655-45.872655s-20.55095-45.872656-45.872655-45.872656H213.399594z" p-id="1661" fill="#bfbfbf"></path></svg>