<svg width="28" height="28" viewBox="0 0 28 28" fill="none" xmlns="http://www.w3.org/2000/svg">
<path d="M19.7031 7.9026C20.3996 7.9026 21.0047 7.3622 21.0047 6.69518V1.20801C21.0047 0.540981 20.3996 0 19.7031 0C19.006 0 18.4413 0.540981 18.4413 1.20801V6.69518C18.4413 7.3622 19.006 7.9026 19.7031 7.9026ZM17.1839 3.04141H10.7955V4.86532H17.1839L17.1839 3.04141ZM24.6581 3.04141H22.2838V4.85521H24.749C25.474 4.85521 26.086 5.44137 26.086 6.13516V10.3561H1.89416V6.13516C1.89416 5.4414 2.50607 4.85521 3.23116 4.85521H5.71242V3.04141H3.34189C1.50366 3.04141 0 4.48127 0 6.24158V24.8004C0 26.5602 1.44829 28 3.28653 28H24.6581C26.4957 28 28 26.5602 28 24.8004V6.24158C28 4.48127 26.4957 3.04141 24.6581 3.04141ZM26.0859 24.8944C26.0859 25.5882 25.474 26.1743 24.7489 26.1743H3.23116C2.50607 26.1743 1.89416 25.5882 1.89416 24.8944V12.1734H26.0859L26.0859 24.8944ZM8.24091 7.9026C8.93739 7.9026 9.54248 7.3622 9.54248 6.69518V1.20801C9.54248 0.540981 8.93741 0 8.24091 0C7.54384 0 6.97913 0.540981 6.97913 1.20801V6.69518C6.97913 7.3622 7.54384 7.9026 8.24091 7.9026Z" fill="#60B71C"/>
</svg>
