<svg width="284" height="284" viewBox="0 0 284 284" fill="none" xmlns="http://www.w3.org/2000/svg">
<path d="M144.434 258.042C141.839 258.042 139.481 256.391 138.537 253.796C126.509 218.182 126.037 169.123 137.122 119.593C147.736 72.657 167.784 29.9666 192.077 2.60699C193.492 0.95598 195.851 0.248404 197.974 0.720121C200.096 1.19184 201.983 2.84285 202.691 4.72972C214.72 40.3444 215.191 89.403 204.106 138.933C193.492 185.869 173.444 228.56 149.151 255.919C147.972 257.334 146.321 258.042 144.434 258.042Z" fill="#60B71C"/>
<path d="M90.1864 200.492C88.2995 200.492 86.4126 199.549 85.2334 197.898C84.0541 196.247 83.8182 194.124 84.2899 192.237C95.6111 156.623 123.914 116.763 162.359 83.2707C198.681 51.6656 239.957 29.0232 275.807 21.4757C277.93 21.004 280.288 21.7116 281.704 23.3626C283.119 25.0136 283.59 27.3722 283.119 29.4949C271.797 65.3454 243.259 105.206 205.05 138.697C168.727 170.303 127.452 192.945 91.6015 200.492H90.1864Z" fill="#60B71C"/>
<path d="M6.69238 158.746C6.69238 217.71 54.5717 265.589 113.536 265.589C172.501 265.589 220.38 217.71 220.38 158.746C220.38 99.7809 172.501 51.9016 113.536 51.9016C54.5717 51.9016 6.69238 99.545 6.69238 158.746Z" fill="#603900"/>
<path d="M113.536 271.722C51.2697 271.722 0.560059 221.012 0.560059 158.746C0.560059 96.4789 51.2697 45.7693 113.536 45.7693C175.803 45.7693 226.513 96.4789 226.513 158.746C226.513 221.012 175.803 271.722 113.536 271.722ZM113.536 58.0339C58.1096 58.0339 12.8247 103.083 12.8247 158.746C12.8247 214.172 57.8737 259.457 113.536 259.457C169.199 259.457 214.248 214.408 214.248 158.746C214.012 103.083 168.963 58.0339 113.536 58.0339Z" fill="#724400"/>
<path d="M72.4969 180.209C72.4969 214.88 90.8939 246.957 121.084 264.41C151.038 281.864 188.068 281.864 218.258 264.41C248.212 246.957 266.844 214.88 266.844 180.209C266.844 126.669 223.446 83.0349 169.671 83.0349C115.895 83.0349 72.4969 126.669 72.4969 180.209Z" fill="white"/>
<path d="M169.671 283.515C112.593 283.515 66.3646 237.051 66.3646 180.209C66.3646 123.131 112.829 76.9026 169.671 76.9026C226.748 76.9026 272.977 123.367 272.977 180.209C272.977 237.286 226.513 283.515 169.671 283.515ZM169.671 89.4031C119.669 89.4031 78.8651 130.207 78.8651 180.209C78.8651 230.211 119.669 271.014 169.671 271.014C219.673 271.014 260.476 230.211 260.476 180.209C260.476 130.207 219.673 89.4031 169.671 89.4031Z" fill="#7A4C01"/>
<path d="M104.81 180.209C104.81 216.059 133.82 245.07 169.671 245.07C205.521 245.07 234.532 216.059 234.532 180.209C234.532 144.358 205.521 115.347 169.671 115.347C133.82 115.347 104.81 144.358 104.81 180.209Z" fill="#EAEAEA"/>
<path d="M36.6464 182.095C34.2878 181.86 32.401 180.209 31.9292 177.85C31.4575 175.963 21.7873 130.678 59.9964 97.1864C62.355 95.2995 65.657 95.5353 67.7798 97.6581C69.6666 100.017 69.4308 103.319 67.308 105.441C34.052 134.452 42.307 173.84 42.7787 175.491C43.4863 178.322 41.5994 181.388 38.7691 181.86C37.8257 182.095 37.1181 182.095 36.6464 182.095ZM72.4969 88.4596C72.2611 90.8182 73.2045 93.1768 75.0914 94.8278C76.9782 96.2429 79.5727 96.4788 81.9313 95.5353C84.054 94.5919 85.705 92.4692 85.9409 90.1106C86.4126 86.3369 83.8181 83.0348 80.0444 82.5631C76.2707 82.0914 72.9686 84.6859 72.4969 88.4596Z" fill="white"/>
</svg>
