<svg width="467" height="467" viewBox="0 0 467 467" fill="none" xmlns="http://www.w3.org/2000/svg">
<g filter="url(#filter0_d_408_792)">
<path d="M230.434 337.042C227.839 337.042 225.481 335.391 224.537 332.796C212.509 297.182 212.037 248.123 223.122 198.593C233.736 151.657 253.784 108.967 278.077 81.607C279.492 79.956 281.851 79.2484 283.974 79.7201C286.096 80.1918 287.983 81.8428 288.691 83.7297C300.72 119.344 301.191 168.403 290.106 217.933C279.492 264.869 259.444 307.56 235.151 334.919C233.972 336.334 232.321 337.042 230.434 337.042Z" fill="#60B71C"/>
<path d="M176.186 279.492C174.3 279.492 172.413 278.549 171.233 276.898C170.054 275.247 169.818 273.124 170.29 271.237C181.611 235.623 209.914 195.763 248.359 162.271C284.681 130.666 325.957 108.023 361.807 100.476C363.93 100.004 366.288 100.712 367.704 102.363C369.119 104.014 369.59 106.372 369.119 108.495C357.797 144.345 329.259 184.206 291.05 217.697C254.727 249.303 213.452 271.945 177.602 279.492H176.186Z" fill="#60B71C"/>
<path d="M92.6924 237.746C92.6924 296.71 140.572 344.589 199.536 344.589C258.501 344.589 306.38 296.71 306.38 237.746C306.38 178.781 258.501 130.902 199.536 130.902C140.572 130.902 92.6924 178.545 92.6924 237.746Z" fill="#603900"/>
<path d="M199.536 350.722C137.27 350.722 86.5601 300.012 86.5601 237.746C86.5601 175.479 137.27 124.769 199.536 124.769C261.803 124.769 312.513 175.479 312.513 237.746C312.513 300.012 261.803 350.722 199.536 350.722ZM199.536 137.034C144.11 137.034 98.8247 182.083 98.8247 237.746C98.8247 293.172 143.874 338.457 199.536 338.457C255.199 338.457 300.248 293.408 300.248 237.746C300.012 182.083 254.963 137.034 199.536 137.034Z" fill="#724400"/>
<path d="M158.497 259.209C158.497 293.88 176.894 325.957 207.084 343.41C237.038 360.864 274.068 360.864 304.258 343.41C334.212 325.957 352.844 293.88 352.844 259.209C352.844 205.669 309.446 162.035 255.671 162.035C201.895 162.035 158.497 205.669 158.497 259.209Z" fill="white"/>
<path d="M255.671 362.515C198.593 362.515 152.365 316.051 152.365 259.209C152.365 202.131 198.829 155.903 255.671 155.903C312.748 155.903 358.977 202.367 358.977 259.209C358.977 316.286 312.513 362.515 255.671 362.515ZM255.671 168.403C205.669 168.403 164.865 209.207 164.865 259.209C164.865 309.211 205.669 350.014 255.671 350.014C305.673 350.014 346.476 309.211 346.476 259.209C346.476 209.207 305.673 168.403 255.671 168.403Z" fill="#7A4C01"/>
<path d="M190.81 259.209C190.81 295.059 219.82 324.07 255.671 324.07C291.521 324.07 320.532 295.059 320.532 259.209C320.532 223.358 291.521 194.347 255.671 194.347C219.82 194.347 190.81 223.358 190.81 259.209Z" fill="#EAEAEA"/>
<path d="M122.646 261.095C120.288 260.86 118.401 259.209 117.929 256.85C117.458 254.963 107.787 209.678 145.996 176.186C148.355 174.299 151.657 174.535 153.78 176.658C155.667 179.017 155.431 182.319 153.308 184.441C120.052 213.452 128.307 252.84 128.779 254.491C129.486 257.322 127.599 260.388 124.769 260.86C123.826 261.095 123.118 261.095 122.646 261.095ZM158.497 167.46C158.261 169.818 159.204 172.177 161.091 173.828C162.978 175.243 165.573 175.479 167.931 174.535C170.054 173.592 171.705 171.469 171.941 169.111C172.413 165.337 169.818 162.035 166.044 161.563C162.271 161.091 158.969 163.686 158.497 167.46Z" fill="white"/>
</g>
<defs>
<filter id="filter0_d_408_792" x="-4" y="0" width="475" height="475" filterUnits="userSpaceOnUse" color-interpolation-filters="sRGB">
<feFlood flood-opacity="0" result="BackgroundImageFix"/>
<feColorMatrix in="SourceAlpha" type="matrix" values="0 0 0 0 0 0 0 0 0 0 0 0 0 0 0 0 0 0 127 0" result="hardAlpha"/>
<feOffset dy="4"/>
<feGaussianBlur stdDeviation="2"/>
<feComposite in2="hardAlpha" operator="out"/>
<feColorMatrix type="matrix" values="0 0 0 0 0 0 0 0 0 0 0 0 0 0 0 0 0 0 0.25 0"/>
<feBlend mode="normal" in2="BackgroundImageFix" result="effect1_dropShadow_408_792"/>
<feBlend mode="normal" in="SourceGraphic" in2="effect1_dropShadow_408_792" result="shape"/>
</filter>
</defs>
</svg>
