<?xml version="1.0" standalone="no"?><!DOCTYPE svg PUBLIC "-//W3C//DTD SVG 1.1//EN" "http://www.w3.org/Graphics/SVG/1.1/DTD/svg11.dtd"><svg t="1715242609072" class="icon" viewBox="0 0 1024 1024" version="1.1" xmlns="http://www.w3.org/2000/svg" p-id="745" xmlns:xlink="http://www.w3.org/1999/xlink" width="200" height="200"><path d="M505.276768 739.038384c-5.688889 0-10.860606-3.620202-12.929293-9.309091-26.375758-78.092929-27.410101-185.664646-3.103031-294.270707 23.272727-102.917172 67.232323-196.525253 120.501011-256.517172 3.10303-3.620202 8.274747-5.171717 12.929292-4.137374 4.654545 1.034343 8.791919 4.654545 10.343435 8.79192 26.375758 78.092929 27.410101 185.664646 3.10303 294.270707-23.272727 102.917172-67.232323 196.525253-120.50101 256.517171-2.585859 3.10303-6.206061 4.654545-10.343434 4.654546z" fill="#60B71C" p-id="746"></path><path d="M386.327273 612.848485c-4.137374 0-8.274747-2.068687-10.860606-5.688889-2.585859-3.620202-3.10303-8.274747-2.068687-12.412121 24.824242-78.092929 86.884848-165.494949 171.183838-238.933334 79.644444-69.30101 170.149495-118.949495 248.759596-135.498989 4.654545-1.034343 9.826263 0.517172 12.929293 4.137373 3.10303 3.620202 4.137374 8.791919 3.10303 13.446465-24.824242 78.610101-87.40202 166.012121-171.183838 239.450505-79.644444 69.30101-170.149495 118.949495-248.759596 135.49899h-3.10303z" fill="#60B71C" p-id="747"></path><path d="M203.248485 521.309091c0 129.292929 104.985859 234.278788 234.278788 234.278788s234.278788-104.985859 234.278788-234.278788c0-129.292929-104.985859-234.278788-234.278788-234.278788s-234.278788 104.468687-234.278788 234.278788z m0 0" fill="#603900" p-id="748"></path><path d="M437.527273 769.034343c-136.533333 0-247.725253-111.191919-247.725253-247.725252s111.191919-247.725253 247.725253-247.725253S685.252525 384.775758 685.252525 521.309091s-111.191919 247.725253-247.725252 247.725252z m0-468.557575c-121.535354 0-220.832323 98.779798-220.832324 220.832323 0 121.535354 98.779798 220.832323 220.832324 220.832323s220.832323-98.779798 220.832323-220.832323c-0.517172-122.052525-99.29697-220.832323-220.832323-220.832323z m0 0" fill="#724400" p-id="749"></path><path d="M347.539394 568.371717c0 76.024242 40.339394 146.359596 106.537374 184.630303 65.680808 38.270707 146.876768 38.270707 213.074747 0 65.680808-38.270707 106.537374-108.606061 106.537374-184.630303 0-117.39798-95.159596-213.074747-213.074748-213.074747s-213.074747 95.676768-213.074747 213.074747z m0 0" fill="#FFFFFF" p-id="750"></path><path d="M560.614141 794.892929c-125.155556 0-226.521212-101.882828-226.521212-226.521212 0-125.155556 101.882828-226.521212 226.521212-226.521212 125.155556 0 226.521212 101.882828 226.521213 226.521212 0 125.155556-101.882828 226.521212-226.521213 226.521212z m0-425.632323c-109.640404 0-199.111111 89.470707-199.111111 199.111111s89.470707 199.111111 199.111111 199.111111 199.111111-89.470707 199.111112-199.111111-89.470707-199.111111-199.111112-199.111111z m0 0" fill="#7A4C01" p-id="751"></path><path d="M418.391919 568.371717c0 78.610101 63.612121 142.222222 142.222222 142.222222s142.222222-63.612121 142.222223-142.222222-63.612121-142.222222-142.222223-142.222222-142.222222 63.612121-142.222222 142.222222z m0 0" fill="#EAEAEA" p-id="752"></path><path d="M268.929293 572.509091c-5.171717-0.517172-9.309091-4.137374-10.343434-9.309091-1.034343-4.137374-22.238384-103.434343 61.543434-176.872727 5.171717-4.137374 12.412121-3.620202 17.066667 1.034343 4.137374 5.171717 3.620202 12.412121-1.034344 17.066667-72.921212 63.612121-54.820202 149.979798-53.785858 153.6 1.551515 6.206061-2.585859 12.929293-8.79192 13.963636-2.068687 0.517172-3.620202 0.517172-4.654545 0.517172z m0 0M347.539394 367.191919c-0.517172 5.171717 1.551515 10.343434 5.688889 13.963637 4.137374 3.10303 9.826263 3.620202 14.99798 1.551515 4.654545-2.068687 8.274747-6.723232 8.791919-11.89495 1.034343-8.274747-4.654545-15.515152-12.929293-16.549495-8.274747-1.034343-15.515152 4.654545-16.549495 12.929293z m0 0" fill="#FFFFFF" p-id="753"></path></svg>