<svg width="203" height="203" viewBox="0 0 203 203" fill="none" xmlns="http://www.w3.org/2000/svg">
<path d="M103.299 184.724C101.437 184.724 99.7431 183.539 99.0657 181.678C90.4292 156.125 90.0905 120.927 98.0497 85.3907C105.67 51.7156 120.064 21.0864 137.507 1.4567C138.523 0.272151 140.216 -0.235514 141.74 0.102929C143.264 0.441373 144.619 1.62592 145.127 2.9797C153.764 28.5322 154.102 63.7303 146.143 99.2669C138.523 132.942 124.128 163.571 106.686 183.201C105.839 184.216 104.654 184.724 103.299 184.724Z" fill="#60B71C"/>
<path d="M64.3505 143.434C62.9957 143.434 61.641 142.757 60.7943 141.572C59.9476 140.388 59.7782 138.865 60.1169 137.511C68.2454 111.959 88.5666 83.3602 116.169 59.3307C142.248 36.6549 171.883 20.4096 197.623 14.9945C199.148 14.6561 200.841 15.1638 201.857 16.3483C202.873 17.5329 203.212 19.2251 202.873 20.7481C194.745 46.4698 174.254 75.0683 146.821 99.0978C120.742 121.774 91.1067 138.019 65.3665 143.434H64.3505Z" fill="#60B71C"/>
<path d="M4.40283 113.482C4.40283 155.787 38.7795 190.139 81.1152 190.139C123.451 190.139 157.828 155.787 157.828 113.482C157.828 71.1762 123.451 36.8242 81.1152 36.8242C38.7795 36.8242 4.40283 71.007 4.40283 113.482Z" fill="#603900"/>
<path d="M81.1153 194.539C36.4088 194.539 0 158.156 0 113.482C0 68.807 36.4088 32.4243 81.1153 32.4243C125.822 32.4243 162.231 68.807 162.231 113.482C162.231 158.156 125.822 194.539 81.1153 194.539ZM81.1153 41.2239C41.3197 41.2239 8.80584 73.5452 8.80584 113.482C8.80584 153.249 41.1504 185.739 81.1153 185.739C121.08 185.739 153.425 153.418 153.425 113.482C153.255 73.5452 120.911 41.2239 81.1153 41.2239Z" fill="#724400"/>
<path d="M51.6497 128.881C51.6497 153.756 64.8584 176.771 86.5343 189.293C108.041 201.815 134.628 201.815 156.304 189.293C177.81 176.771 191.188 153.756 191.188 128.881C191.188 90.4674 160.029 59.1614 121.419 59.1614C82.8088 59.1614 51.6497 90.4674 51.6497 128.881Z" fill="white"/>
<path d="M121.419 203C80.4381 203 47.2468 169.663 47.2468 128.881C47.2468 87.9292 80.6074 54.7617 121.419 54.7617C162.4 54.7617 195.591 88.0984 195.591 128.881C195.591 169.833 162.231 203 121.419 203ZM121.419 63.7305C85.5184 63.7305 56.222 93.0058 56.222 128.881C56.222 164.756 85.5184 194.031 121.419 194.031C157.32 194.031 186.616 164.756 186.616 128.881C186.616 93.0058 157.32 63.7305 121.419 63.7305Z" fill="#7A4C01"/>
<path d="M74.8496 128.881C74.8496 154.602 95.6788 175.417 121.419 175.417C147.159 175.417 167.988 154.602 167.988 128.881C167.988 103.159 147.159 82.3447 121.419 82.3447C95.6788 82.3447 74.8496 103.159 74.8496 128.881Z" fill="#EAEAEA"/>
<path d="M25.9094 130.235C24.216 130.065 22.8613 128.881 22.5226 127.189C22.1839 125.835 15.2408 93.3441 42.6744 69.3146C44.3678 67.9609 46.7386 68.1301 48.2627 69.6531C49.6175 71.3453 49.4481 73.7144 47.924 75.2374C24.0467 96.0517 29.9737 124.312 30.3124 125.496C30.8204 127.527 29.4656 129.727 27.4335 130.065C26.7562 130.235 26.2481 130.235 25.9094 130.235ZM51.6496 63.0534C51.4802 64.7457 52.1576 66.4379 53.5124 67.6224C54.8671 68.6378 56.7299 68.807 58.4233 68.1301C59.9474 67.4532 61.1328 65.9302 61.3021 64.238C61.6408 61.5304 59.7781 59.1613 57.0686 58.8229C54.3591 58.4844 51.9883 60.3459 51.6496 63.0534Z" fill="white"/>
</svg>
