<svg width="30" height="30" viewBox="0 0 30 30" fill="none" xmlns="http://www.w3.org/2000/svg">
<path d="M15.24 8.38533C15.72 8.89911 15.72 9.54133 15.36 10.0551L15.24 10.1836L10.08 15.7067H28.8C29.52 15.7067 30 16.2204 30 16.9911C30 17.6333 29.52 18.1471 28.92 18.2756H10.08L15.24 23.7987C15.72 24.3124 15.72 24.9547 15.36 25.4684L15.24 25.5969C14.76 26.1107 14.16 26.1107 13.68 25.7253L13.56 25.5969L6.36 17.8902L6.24 17.7618L6.12 17.6333L6 17.5049V16.4773L6.12 16.3489L6.24 16.2204L6.36 16.092L13.56 8.38533C14.04 7.87156 14.76 7.87156 15.24 8.38533Z" fill="#60B71B"/>
</svg>
