<?xml version="1.0" standalone="no"?><!DOCTYPE svg PUBLIC "-//W3C//DTD SVG 1.1//EN" "http://www.w3.org/Graphics/SVG/1.1/DTD/svg11.dtd"><svg t="1715242439078" class="icon" viewBox="0 0 1024 1024" version="1.1" xmlns="http://www.w3.org/2000/svg" p-id="1670" xmlns:xlink="http://www.w3.org/1999/xlink" width="200" height="200"><path d="M925.090909 157.090909h-249.425454C663.505455 68.247273 594.734545 0 512 0S360.494545 68.247273 348.334545 157.090909H98.909091a37.818182 37.818182 0 1 0 0 75.636364h826.181818a37.818182 37.818182 0 1 0 0-75.636364z m-499.898182 0c10.24-46.836364 45.207273-81.454545 86.807273-81.454545s76.567273 34.618182 86.807273 81.454545H425.134545zM828.392727 321.454545a37.818182 37.818182 0 0 0-37.818182 37.818182V896c0 28.858182-23.505455 52.363636-52.363636 52.363636H285.789091c-28.858182 0-52.363636-23.505455-52.363636-52.363636V359.272727a37.818182 37.818182 0 1 0-75.636364 0V896c0 70.574545 57.425455 128 128 128h452.363636c70.574545 0 128-57.425455 128-128V359.272727a37.818182 37.818182 0 0 0-37.818182-37.818182z" p-id="1671" fill="#bfbfbf"></path><path d="M433.454545 783.534545V433.454545a37.818182 37.818182 0 1 0-75.636363 0v350.08a37.818182 37.818182 0 1 0 75.636363 0zM666.181818 783.534545V433.454545a37.818182 37.818182 0 1 0-75.636363 0v350.08a37.818182 37.818182 0 1 0 75.636363 0z" p-id="1672" fill="#bfbfbf"></path></svg>