<?xml version="1.0" standalone="no"?><!DOCTYPE svg PUBLIC "-//W3C//DTD SVG 1.1//EN" "http://www.w3.org/Graphics/SVG/1.1/DTD/svg11.dtd"><svg t="1715242324169" class="icon" viewBox="0 0 1024 1024" version="1.1" xmlns="http://www.w3.org/2000/svg" p-id="6861" xmlns:xlink="http://www.w3.org/1999/xlink" width="200" height="200"><path d="M711.3062 290.6972c24.2821 0 45.3765-19.7069 45.3765-44.032L756.6827 46.560256c0-24.3251-21.0954-44.0535-45.3765-44.0535-24.3026 0-43.988 19.7284-43.988 44.0535l0 200.10496C667.3183 270.9903 687.0036 290.6972 711.3062 290.6972zM623.4808 113.4203 400.764928 113.4203l0 66.51392 222.715904 0L623.480832 113.420288zM884.053 113.4203l-82.774016 0 0 66.14528 85.940224 0c25.2785 0 46.6115 21.376 46.6115 46.677l0 153.92768L90.438656 380.17026l0-153.92768c0-25.3 21.333-46.677 46.6115-46.677l86.503424 0L223.55358 113.420288l-82.642944 0c-64.086 0-116.5076 52.5087-116.5076 116.7032l0 676.801536c0 64.1741 50.4914 116.6807 114.5774 116.6807L884.052992 1023.605724c64.0625 0 116.5066-52.5066 116.5066-116.6807L1000.559592 230.12352C1000.5596 165.929 948.1144 113.4203 884.053 113.4203zM933.8296 910.3514c0 25.3-21.333 46.676-46.6115 46.676L137.050112 957.0274c-25.2785 0-46.6115-21.376-46.6115-46.676L90.438612 446.445568 933.829632 446.445568 933.829632 910.35136zM267.1084 646.1819c36.8773 0 66.7525-29.9397 66.7525-66.8815 0-36.9224-29.8752-66.8611-66.7525-66.8611-36.8548 0-66.7525 29.9397-66.7525 66.8611C200.3558 616.2422 230.2525 646.1819 267.1084 646.1819zM511.5484 646.1819c36.8558 0 66.7525-29.9397 66.7525-66.8815 0-36.9224-29.8957-66.8611-66.7525-66.8611-36.8773 0-66.7525 29.9397-66.7525 66.8611C444.7959 616.2422 474.6711 646.1819 511.5484 646.1819zM265.9164 890.709c36.8773 0 66.7515-29.9397 66.7515-66.8611 0-36.9428-29.8742-66.8826-66.7515-66.8826-36.8558 0-66.7525 29.9397-66.7525 66.8826C199.1639 860.7693 229.0596 890.709 265.9164 890.709zM511.5484 890.709c36.8558 0 66.7525-29.9397 66.7525-66.8611 0-36.9428-29.8957-66.8826-66.7525-66.8826-36.8773 0-66.7525 29.9397-66.7525 66.8826C444.7959 860.7693 474.6711 890.709 511.5484 890.709zM755.6413 646.1819c36.8568 0 66.7535-29.9397 66.7535-66.8815 0-36.9224-29.8967-66.8611-66.7535-66.8611-36.8773 0-66.7525 29.9397-66.7525 66.8611C688.8899 616.2422 718.764 646.1819 755.6413 646.1819zM311.7036 290.6972c24.2811 0 45.3765-19.7069 45.3765-44.032L357.0801 46.560256c0-24.3251-21.0944-44.0535-45.3765-44.0535-24.3016 0-43.989 19.7284-43.989 44.0535l0 200.10496C267.7146 270.9903 287.402 290.6972 311.7036 290.6972z" fill="#bfbfbf" p-id="6862"></path></svg>